<svg xmlns="http://www.w3.org/2000/svg" viewBox="0 0 1200 1200">
  <defs>
    <linearGradient id="bg" x1="0" y1="0" x2="1" y2="1">
      <stop offset="0%" stop-color="#d8c0a8"/>
      <stop offset="45%" stop-color="#f0e4d2"/>
      <stop offset="100%" stop-color="#a2b59d"/>
    </linearGradient>
    <radialGradient id="plate" cx="50%" cy="48%" r="48%">
      <stop offset="0%" stop-color="#fffef9"/>
      <stop offset="100%" stop-color="#efe4d2"/>
    </radialGradient>
    <linearGradient id="salmon" x1="0" y1="0" x2="1" y2="1">
      <stop offset="0%" stop-color="#ffb28c"/>
      <stop offset="100%" stop-color="#ef7e63"/>
    </linearGradient>
  </defs>
  <rect width="1200" height="1200" fill="url(#bg)"/>
  <circle cx="600" cy="620" r="430" fill="url(#plate)"/>
  <circle cx="600" cy="620" r="385" fill="#f8f0e6"/>
  <g opacity=".24" fill="#ffffff">
    <circle cx="160" cy="210" r="130"/>
    <circle cx="980" cy="230" r="95"/>
  </g>
  <g transform="translate(160 210)">
    <ellipse cx="430" cy="720" rx="315" ry="66" fill="#b58d72" opacity=".18"/>
    <g fill="none" stroke="#e8c169" stroke-linecap="round">
      <path d="M240 560c52-135 248-210 401-127 111 60 161 173 122 271" stroke-width="22"/>
      <path d="M203 521c103-100 270-126 391-61 117 63 161 188 119 292" stroke-width="19"/>
      <path d="M280 632c79-67 192-87 292-39 88 42 138 125 130 212" stroke-width="17"/>
      <path d="M260 446c107-49 236-45 337 16 98 59 147 161 131 265" stroke-width="15"/>
      <path d="M330 385c118-12 232 30 309 111 62 65 90 148 79 232" stroke-width="13"/>
    </g>
    <g fill="url(#salmon)">
      <rect x="332" y="308" width="162" height="102" rx="28" transform="rotate(-8 413 359)"/>
      <rect x="530" y="352" width="156" height="96" rx="28" transform="rotate(12 608 400)"/>
    </g>
    <g stroke="#ffd6c7" stroke-width="8" stroke-linecap="round" opacity=".85">
      <path d="M350 342h120"/>
      <path d="M348 366h112"/>
      <path d="M346 390h104"/>
      <path d="M553 382h114"/>
      <path d="M556 406h108"/>
      <path d="M560 430h94"/>
    </g>
    <g fill="#f6d860">
      <path d="M690 286c46 0 83 38 83 85 0 34-23 66-56 79-30 12-64 4-86-18l59-61-82 24c-8-27-1-57 18-79 17-19 40-30 64-30Z"/>
      <path d="M190 650c34-32 87-30 118 4 30 33 28 84-5 114-33 31-85 29-115-4 18-18 40-32 64-42-25-9-47-24-62-44Z"/>
    </g>
    <g fill="#7fa06b">
      <ellipse cx="262" cy="350" rx="22" ry="66" transform="rotate(-22 262 350)"/>
      <ellipse cx="714" cy="554" rx="18" ry="58" transform="rotate(18 714 554)"/>
      <ellipse cx="632" cy="262" rx="16" ry="50" transform="rotate(12 632 262)"/>
      <ellipse cx="476" cy="610" rx="16" ry="52" transform="rotate(-28 476 610)"/>
    </g>
  </g>
  <text x="90" y="1080" fill="#5c4d42" font-size="74" font-family="'Hiragino Sans','Yu Gothic',sans-serif" font-weight="700">サーモンレモンパスタ</text>
</svg>
