<svg xmlns="http://www.w3.org/2000/svg" viewBox="0 0 1200 1200">
  <defs>
    <linearGradient id="bg" x1="0" y1="0" x2="1" y2="1">
      <stop offset="0%" stop-color="#6b4b38"/>
      <stop offset="48%" stop-color="#9a5a3e"/>
      <stop offset="100%" stop-color="#d5b28f"/>
    </linearGradient>
    <radialGradient id="plate" cx="50%" cy="45%" r="50%">
      <stop offset="0%" stop-color="#fffaf3"/>
      <stop offset="100%" stop-color="#ebd8c3"/>
    </radialGradient>
    <radialGradient id="glaze" cx="35%" cy="30%" r="80%">
      <stop offset="0%" stop-color="#ff8a63"/>
      <stop offset="55%" stop-color="#cf4f35"/>
      <stop offset="100%" stop-color="#8d2f22"/>
    </radialGradient>
  </defs>
  <rect width="1200" height="1200" fill="url(#bg)"/>
  <circle cx="600" cy="630" r="430" fill="url(#plate)"/>
  <circle cx="600" cy="630" r="380" fill="#f8ecde"/>
  <g opacity=".22" fill="#ffffff">
    <circle cx="220" cy="220" r="120"/>
    <circle cx="1020" cy="310" r="80"/>
  </g>
  <g transform="translate(160 250)">
    <ellipse cx="430" cy="620" rx="330" ry="70" fill="#c8a487" opacity=".24"/>
    <g fill="url(#glaze)">
      <path d="M170 470c-18-84 54-170 138-170 102 0 154 128 96 206-38 52-152 76-204-36Z"/>
      <path d="M410 330c30-72 132-104 201-46 89 76 47 229-79 244-91 11-177-94-122-198Z"/>
      <path d="M655 458c-26-77 32-170 122-187 96-18 182 57 176 156-6 100-103 160-208 127-47-15-77-45-90-96Z"/>
      <path d="M282 682c-62-59-54-168 17-227 63-52 150-46 214 16 65 63 63 164-3 223-72 64-162 58-228-12Z"/>
      <path d="M580 718c-58-46-68-145-24-212 51-77 170-104 254-31 82 72 68 184-15 244-71 51-155 49-215-1Z"/>
    </g>
    <g fill="#fff6d7" opacity=".95">
      <circle cx="255" cy="440" r="10"/>
      <circle cx="312" cy="390" r="8"/>
      <circle cx="497" cy="380" r="8"/>
      <circle cx="690" cy="432" r="10"/>
      <circle cx="350" cy="664" r="8"/>
      <circle cx="562" cy="701" r="9"/>
      <circle cx="736" cy="593" r="7"/>
      <circle cx="454" cy="548" r="8"/>
    </g>
    <g fill="#7ba05b">
      <rect x="762" y="512" width="12" height="78" rx="6" transform="rotate(28 768 551)"/>
      <rect x="790" y="530" width="12" height="66" rx="6" transform="rotate(-18 796 563)"/>
      <rect x="205" y="560" width="12" height="72" rx="6" transform="rotate(-20 211 596)"/>
      <rect x="228" y="585" width="12" height="60" rx="6" transform="rotate(12 234 615)"/>
    </g>
  </g>
  <text x="90" y="1080" fill="#fffaf3" font-size="82" font-family="'Hiragino Sans','Yu Gothic',sans-serif" font-weight="700">ヤンニョムチキン</text>
</svg>
